<?xml version="1.0" encoding="UTF-8" standalone="no"?>
<svg
   xmlns:dc="http://purl.org/dc/elements/1.1/"
   xmlns:cc="http://creativecommons.org/ns#"
   xmlns:rdf="http://www.w3.org/1999/02/22-rdf-syntax-ns#"
   xmlns:svg="http://www.w3.org/2000/svg"
   xmlns="http://www.w3.org/2000/svg"
   xmlns:sodipodi="http://sodipodi.sourceforge.net/DTD/sodipodi-0.dtd"
   xmlns:inkscape="http://www.inkscape.org/namespaces/inkscape"
   version="1.1"
   id="svg2"
   viewBox="0 0 32 32.000001"
   height="32"
   width="32"
   sodipodi:docname="light_krita_tool_freehand_wash.svg"
   inkscape:version="1.0.2 (e86c870879, 2021-01-15)">
  <sodipodi:namedview
     pagecolor="#ffffff"
     bordercolor="#666666"
     borderopacity="1"
     objecttolerance="10"
     gridtolerance="10"
     guidetolerance="10"
     inkscape:pageopacity="0"
     inkscape:pageshadow="2"
     inkscape:window-width="1920"
     inkscape:window-height="1056"
     id="namedview10"
     showgrid="false"
     inkscape:zoom="2.8177596"
     inkscape:cx="24.692189"
     inkscape:cy="9.9833074"
     inkscape:window-x="1920"
     inkscape:window-y="0"
     inkscape:window-maximized="1"
     inkscape:current-layer="svg2" />
  <defs
     id="defs4" />
  <metadata
     id="metadata7">
    <rdf:RDF>
      <cc:Work
         rdf:about="">
        <dc:format>image/svg+xml</dc:format>
        <dc:type
           rdf:resource="http://purl.org/dc/dcmitype/StillImage" />
        <dc:title />
        <dc:creator>
          <cc:Agent>
            <dc:title>Timothée Giet</dc:title>
          </cc:Agent>
        </dc:creator>
        <dc:date>2017</dc:date>
        <cc:license
           rdf:resource="http://creativecommons.org/licenses/by-sa/4.0/" />
      </cc:Work>
      <cc:License
         rdf:about="http://creativecommons.org/licenses/by-sa/4.0/">
        <cc:permits
           rdf:resource="http://creativecommons.org/ns#Reproduction" />
        <cc:permits
           rdf:resource="http://creativecommons.org/ns#Distribution" />
        <cc:requires
           rdf:resource="http://creativecommons.org/ns#Notice" />
        <cc:requires
           rdf:resource="http://creativecommons.org/ns#Attribution" />
        <cc:permits
           rdf:resource="http://creativecommons.org/ns#DerivativeWorks" />
        <cc:requires
           rdf:resource="http://creativecommons.org/ns#ShareAlike" />
      </cc:License>
    </rdf:RDF>
  </metadata>
  <g
     style="display:inline"
     id="g4160"
     transform="translate(0,6)" />
  <path
     style="fill:#cacaca"
     id="path6"
     d="m 11.219417,15.892144 c -4.2656666,0.924486 -5.8798289,4.76152 -5.7602025,7.676073 0.1290153,3.143304 -3.2492423,5.634064 -5.37088721,6.064991 2.88480171,2.290554 7.10590391,2.632817 10.91981371,1.858174 5.581946,-1.133748 9.38291,-5.486724 8.3665,-10.490964 -0.763458,-3.75884 -3.973912,-6.014478 -8.155224,-5.108274 z" />
  <path
     id="path4174-1"
     d="m 15.419679,13.919707 c 2.333842,0.386972 4.895586,2.565916 5.385678,4.577888 0.277189,0.943348 2.614657,-1.018254 2.259914,-2.36818 -1.261052,-2.782065 -3.970326,-4.680627 -6.408155,-4.596194 -0.881229,0.01424 -1.949958,2.340991 -1.237437,2.386486 z"
     style="display:inline;fill:#cacaca;fill-opacity:1;fill-rule:evenodd;stroke:none;stroke-width:1px;stroke-linecap:butt;stroke-linejoin:miter;stroke-opacity:1" />
  <path
     id="path4174-3-9"
     d="m 18.646764,9.7418502 c 2.333842,0.3869718 5.2226,2.7647908 5.712692,4.7767628 0.277189,0.943348 8.629506,-7.8462544 8.274763,-9.1961804 1.08124,-8.2179489 -0.421564,-5.33987312 -7.910756,-5.74524312 -2.383831,0.1468225 -6.78922,10.11916572 -6.076699,10.16466072 z"
     style="display:inline;fill:#cacaca;fill-opacity:1;fill-rule:evenodd;stroke:none;stroke-width:1px;stroke-linecap:butt;stroke-linejoin:miter;stroke-opacity:1" />
  <path
     id="path851"
     style="fill:#cacaca;fill-opacity:1"
     d="M 1.0488281 -1.2441406 L 1.0488281 27.857422 C 2.9316587 26.852172 4.9058723 24.82977 4.8066406 22.412109 C 4.6870142 19.497556 6.3007399 15.660814 10.566406 14.736328 C 11.900792 14.44713 13.134 14.48423 14.222656 14.785156 L 14.222656 -1.2441406 L 11.484375 -1.2441406 C 11.488201 -1.207031 11.503906 -1.1749694 11.503906 -1.1367188 L 11.503906 1.0917969 C 11.503906 1.6457969 11.091909 2.0917969 10.580078 2.0917969 C 10.068248 2.0917969 9.65625 1.6457969 9.65625 1.0917969 L 9.65625 -1.1367188 C 9.65625 -1.1749694 9.6719555 -1.207031 9.6757812 -1.2441406 L 1.0488281 -1.2441406 z M 5.0664062 1.3984375 C 5.5782368 1.3984375 5.9902344 1.8444375 5.9902344 2.3984375 L 5.9902344 10.988281 C 5.9902344 11.542281 5.578237 11.988281 5.0664062 11.988281 C 4.5545757 11.988281 4.1425781 11.542281 4.1425781 10.988281 L 4.1425781 2.3984375 C 4.1425781 1.8444375 4.5545757 1.3984375 5.0664062 1.3984375 z M 10.580078 9.7148438 C 11.091909 9.7148438 11.503906 10.160844 11.503906 10.714844 L 11.503906 12.941406 C 11.503906 13.495406 11.091909 13.941406 10.580078 13.941406 C 10.068248 13.941406 9.65625 13.495406 9.65625 12.941406 L 9.65625 10.714844 C 9.65625 10.160844 10.068248 9.7148438 10.580078 9.7148438 z M 19.052734 19.882812 C 19.080058 19.957371 19.105721 20.033248 19.130859 20.109375 C 19.105631 20.032985 19.080166 19.957618 19.052734 19.882812 z M 17.056641 28.369141 C 16.84149 28.585331 16.615654 28.79495 16.376953 28.994141 C 16.616055 28.794597 16.841165 28.58574 17.056641 28.369141 z " />
</svg>
